<mxfile host="app.diagrams.net" modified="2023-09-18T04:59:29.254Z" agent="Mozilla/5.0 (Windows NT 10.0; Win64; x64) AppleWebKit/537.36 (KHTML, like Gecko) Chrome/116.0.0.0 Safari/537.36" etag="my2O8R22JKLhImb9Hmir" version="21.7.5" type="device">
  <diagram id="I9AWcRa69IUDQCPRj649" name="Page-1">
    <mxGraphModel dx="1290" dy="1634" grid="1" gridSize="10" guides="1" tooltips="1" connect="1" arrows="1" fold="1" page="1" pageScale="1" pageWidth="850" pageHeight="1100" math="0" shadow="0">
      <root>
        <mxCell id="0" />
        <mxCell id="1" parent="0" />
        <mxCell id="4" value="" style="edgeStyle=none;html=1;" parent="1" source="2" target="3" edge="1">
          <mxGeometry relative="1" as="geometry" />
        </mxCell>
        <mxCell id="2" value="START" style="ellipse;whiteSpace=wrap;html=1;aspect=fixed;fillColor=#d5e8d4;strokeColor=#82b366;" parent="1" vertex="1">
          <mxGeometry x="190" y="-700" width="80" height="80" as="geometry" />
        </mxCell>
        <mxCell id="6" value="" style="edgeStyle=none;html=1;" parent="1" source="3" target="5" edge="1">
          <mxGeometry relative="1" as="geometry" />
        </mxCell>
        <mxCell id="3" value="&lt;font style=&quot;font-size: 12px;&quot;&gt;Display Home Page&lt;/font&gt;" style="whiteSpace=wrap;html=1;" parent="1" vertex="1">
          <mxGeometry x="170" y="-530" width="120" height="60" as="geometry" />
        </mxCell>
        <mxCell id="EtMRU0CBn_H-e02zBph0-27" style="edgeStyle=orthogonalEdgeStyle;rounded=0;orthogonalLoop=1;jettySize=auto;html=1;" parent="1" source="5" target="EtMRU0CBn_H-e02zBph0-26" edge="1">
          <mxGeometry relative="1" as="geometry" />
        </mxCell>
        <mxCell id="5" value="&lt;font style=&quot;font-size: 9px;&quot; color=&quot;#000000&quot;&gt;User selects type of conversion from Navbar&lt;/font&gt;" style="shape=parallelogram;perimeter=parallelogramPerimeter;whiteSpace=wrap;html=1;fixedSize=1;fillColor=#e1d5e7;strokeColor=#9673a6;" parent="1" vertex="1">
          <mxGeometry x="170" y="-390" width="120" height="60" as="geometry" />
        </mxCell>
        <mxCell id="EtMRU0CBn_H-e02zBph0-30" value="" style="edgeStyle=orthogonalEdgeStyle;rounded=0;orthogonalLoop=1;jettySize=auto;html=1;" parent="1" target="EtMRU0CBn_H-e02zBph0-29" edge="1">
          <mxGeometry relative="1" as="geometry">
            <mxPoint x="230" y="-110" as="sourcePoint" />
          </mxGeometry>
        </mxCell>
        <mxCell id="EtMRU0CBn_H-e02zBph0-35" value="" style="edgeStyle=orthogonalEdgeStyle;rounded=0;orthogonalLoop=1;jettySize=auto;html=1;" parent="1" source="Ywn8maym1yZ962y35HzP-19" target="EtMRU0CBn_H-e02zBph0-13" edge="1">
          <mxGeometry relative="1" as="geometry" />
        </mxCell>
        <mxCell id="Ywn8maym1yZ962y35HzP-19" value="Find conversion factors" style="whiteSpace=wrap;html=1;fillColor=#f5f5f5;strokeColor=#666666;fontColor=#333333;" parent="1" vertex="1">
          <mxGeometry x="350" y="60" width="120" height="60" as="geometry" />
        </mxCell>
        <mxCell id="EtMRU0CBn_H-e02zBph0-34" value="YES" style="edgeStyle=orthogonalEdgeStyle;rounded=0;orthogonalLoop=1;jettySize=auto;html=1;" parent="1" source="Ywn8maym1yZ962y35HzP-22" target="Ywn8maym1yZ962y35HzP-19" edge="1">
          <mxGeometry relative="1" as="geometry" />
        </mxCell>
        <mxCell id="EtMRU0CBn_H-e02zBph0-38" value="NO" style="edgeStyle=orthogonalEdgeStyle;rounded=0;orthogonalLoop=1;jettySize=auto;html=1;" parent="1" target="EtMRU0CBn_H-e02zBph0-23" edge="1">
          <mxGeometry x="-0.0777" relative="1" as="geometry">
            <mxPoint x="69.96" y="89.63" as="targetPoint" />
            <mxPoint x="189.99703703703673" y="89.66703703703672" as="sourcePoint" />
            <mxPoint as="offset" />
          </mxGeometry>
        </mxCell>
        <mxCell id="Ywn8maym1yZ962y35HzP-22" value="Is the input valid?" style="rhombus;whiteSpace=wrap;html=1;fillColor=#e1d5e7;strokeColor=#9673a6;" parent="1" vertex="1">
          <mxGeometry x="190" y="50" width="80" height="80" as="geometry" />
        </mxCell>
        <mxCell id="EtMRU0CBn_H-e02zBph0-36" value="" style="edgeStyle=orthogonalEdgeStyle;rounded=0;orthogonalLoop=1;jettySize=auto;html=1;" parent="1" source="EtMRU0CBn_H-e02zBph0-13" target="EtMRU0CBn_H-e02zBph0-15" edge="1">
          <mxGeometry relative="1" as="geometry" />
        </mxCell>
        <mxCell id="EtMRU0CBn_H-e02zBph0-13" value="Multiply the value by the quotient of the original unit factor by the target" style="whiteSpace=wrap;html=1;fillColor=#f5f5f5;strokeColor=#666666;fontColor=#333333;" parent="1" vertex="1">
          <mxGeometry x="565" y="60" width="120" height="60" as="geometry" />
        </mxCell>
        <mxCell id="EtMRU0CBn_H-e02zBph0-37" value="" style="edgeStyle=orthogonalEdgeStyle;rounded=0;orthogonalLoop=1;jettySize=auto;html=1;" parent="1" source="EtMRU0CBn_H-e02zBph0-15" target="EtMRU0CBn_H-e02zBph0-17" edge="1">
          <mxGeometry relative="1" as="geometry" />
        </mxCell>
        <mxCell id="EtMRU0CBn_H-e02zBph0-15" value="Redirect user to result page" style="whiteSpace=wrap;html=1;fillColor=#f5f5f5;strokeColor=#666666;fontColor=#333333;" parent="1" vertex="1">
          <mxGeometry x="755" y="60" width="120" height="60" as="geometry" />
        </mxCell>
        <mxCell id="EtMRU0CBn_H-e02zBph0-40" value="NO" style="edgeStyle=orthogonalEdgeStyle;rounded=0;orthogonalLoop=1;jettySize=auto;html=1;" parent="1" source="EtMRU0CBn_H-e02zBph0-17" target="EtMRU0CBn_H-e02zBph0-20" edge="1">
          <mxGeometry relative="1" as="geometry" />
        </mxCell>
        <mxCell id="EtMRU0CBn_H-e02zBph0-41" value="YES" style="edgeStyle=orthogonalEdgeStyle;rounded=0;orthogonalLoop=1;jettySize=auto;html=1;entryX=1;entryY=0.5;entryDx=0;entryDy=0;" parent="1" source="EtMRU0CBn_H-e02zBph0-17" target="EtMRU0CBn_H-e02zBph0-26" edge="1">
          <mxGeometry x="-0.5216" y="-1" relative="1" as="geometry">
            <mxPoint x="999.9999999999995" y="-650.0000000000002" as="targetPoint" />
            <Array as="points">
              <mxPoint x="1001" y="-250" />
            </Array>
            <mxPoint as="offset" />
          </mxGeometry>
        </mxCell>
        <mxCell id="EtMRU0CBn_H-e02zBph0-17" value="Has user selected &#39;Back&#39; button?" style="rhombus;whiteSpace=wrap;html=1;fillColor=#e1d5e7;strokeColor=#9673a6;" parent="1" vertex="1">
          <mxGeometry x="940" y="30" width="120" height="120" as="geometry" />
        </mxCell>
        <mxCell id="EtMRU0CBn_H-e02zBph0-20" value="END" style="ellipse;whiteSpace=wrap;html=1;fillColor=#d5e8d4;strokeColor=#82b366;" parent="1" vertex="1">
          <mxGeometry x="1170" y="50" width="80" height="80" as="geometry" />
        </mxCell>
        <mxCell id="EtMRU0CBn_H-e02zBph0-39" style="edgeStyle=orthogonalEdgeStyle;rounded=0;orthogonalLoop=1;jettySize=auto;html=1;entryX=0;entryY=0.5;entryDx=0;entryDy=0;" parent="1" source="EtMRU0CBn_H-e02zBph0-23" target="EtMRU0CBn_H-e02zBph0-26" edge="1">
          <mxGeometry relative="1" as="geometry">
            <mxPoint x="70" y="-240" as="targetPoint" />
            <Array as="points">
              <mxPoint x="70" y="-250" />
            </Array>
          </mxGeometry>
        </mxCell>
        <mxCell id="EtMRU0CBn_H-e02zBph0-23" value="Display Error Message" style="whiteSpace=wrap;html=1;fillColor=#e1d5e7;strokeColor=#9673a6;" parent="1" vertex="1">
          <mxGeometry x="10" y="-110" width="120" height="60" as="geometry" />
        </mxCell>
        <mxCell id="LCVCJAqcIfYIpfxb2Yok-13" value="" style="edgeStyle=orthogonalEdgeStyle;rounded=0;orthogonalLoop=1;jettySize=auto;html=1;" edge="1" parent="1" source="EtMRU0CBn_H-e02zBph0-26" target="LCVCJAqcIfYIpfxb2Yok-12">
          <mxGeometry relative="1" as="geometry" />
        </mxCell>
        <mxCell id="EtMRU0CBn_H-e02zBph0-26" value="Display conversion page" style="rounded=0;whiteSpace=wrap;html=1;" parent="1" vertex="1">
          <mxGeometry x="170" y="-280" width="120" height="60" as="geometry" />
        </mxCell>
        <mxCell id="EtMRU0CBn_H-e02zBph0-31" value="" style="edgeStyle=orthogonalEdgeStyle;rounded=0;orthogonalLoop=1;jettySize=auto;html=1;" parent="1" source="EtMRU0CBn_H-e02zBph0-29" target="Ywn8maym1yZ962y35HzP-22" edge="1">
          <mxGeometry relative="1" as="geometry" />
        </mxCell>
        <mxCell id="EtMRU0CBn_H-e02zBph0-29" value="User presses &#39;Submit&#39; button" style="whiteSpace=wrap;html=1;fillColor=#f5f5f5;strokeColor=#666666;fontColor=#333333;" parent="1" vertex="1">
          <mxGeometry x="170" y="-60" width="120" height="60" as="geometry" />
        </mxCell>
        <mxCell id="LCVCJAqcIfYIpfxb2Yok-14" value="" style="edgeStyle=orthogonalEdgeStyle;rounded=0;orthogonalLoop=1;jettySize=auto;html=1;" edge="1" parent="1" source="LCVCJAqcIfYIpfxb2Yok-12" target="EtMRU0CBn_H-e02zBph0-29">
          <mxGeometry relative="1" as="geometry" />
        </mxCell>
        <mxCell id="LCVCJAqcIfYIpfxb2Yok-12" value="&lt;font style=&quot;font-size: 11px;&quot;&gt;User inputs &#39;value&#39; and &lt;br&gt;units of conversion&lt;/font&gt;" style="shape=parallelogram;perimeter=parallelogramPerimeter;whiteSpace=wrap;html=1;fixedSize=1;rounded=0;fillColor=#E1D5E7;" vertex="1" parent="1">
          <mxGeometry x="155" y="-185" width="150" height="75" as="geometry" />
        </mxCell>
      </root>
    </mxGraphModel>
  </diagram>
</mxfile>
